<svg xmlns="http://www.w3.org/2000/svg" viewBox="0 0 48 48">
    <style>
        #return-support{fill:url(#return-support-gradient)}
    </style>
    <defs>
        <linearGradient id="return-support-gradient" class="shape-gradient" x2="0.35" y2="1">
            <stop class="start-color" offset="0%" stop-color="var(--color-start)"/>
            <stop class="end-color" offset="100%" stop-color="var(--color-stop)"/>
        </linearGradient>
    </defs>
    <path id="return-support"
          d="M37.15 39.1q-4.75 0-9.8-2.65-5.05-2.65-9.2-6.775-4.15-4.125-6.8-9.15Q8.7 15.5 8.7 10.75q0-.9.625-1.525Q9.95 8.6 10.85 8.6h3.65q.9 0 1.525.525.625.525.825 1.425l.95 3.9q.15.8-.05 1.45-.2.65-.7 1.05l-4.25 3.9q3 5 6.55 8.5t8.4 6.15l4.15-4.35q.5-.55 1.075-.75.575-.2 1.275-.05l3.1.7q.9.15 1.425.8t.525 1.6v3.5q0 .9-.625 1.525-.625.625-1.525.625Z"/>
</svg>