<?xml version="1.0" encoding="UTF-8" standalone="no"?>
<!-- Created with Inkscape (http://www.inkscape.org/) -->

<svg
   width="512"
   height="512"
   viewBox="0 0 135.46666 135.46667"
   version="1.1"
   id="svg5"
   xmlns="http://www.w3.org/2000/svg">
  <defs
     id="defs2" />
  <g
     id="layer1">
    <g
       id="g6118"
       transform="translate(-0.17423236,0.18308263)">
      <path
         fill="#4496e0"
         opacity="1"
         stroke="none"
         d="M 0.17419138,29.971063 C 15.714267,29.847064 31.254343,29.847064 46.899884,29.847064 c 0,25.118628 0,50.200972 0,75.406336 -0.40181,0 -0.78638,0 -1.17096,0 -14.719432,0 -29.438869,8e-4 -44.1583026,-0.005 -0.39,-1.6e-4 -0.77997202,-0.0721 -1.28319302,-0.0529 -0.113237,-24.994937 -0.113237,-50.047687 -0.113237,-75.224437 M 27.556039,35.426608 C 22.66851,33.053594 17.457202,32.481512 12.108203,32.585239 c -1.064962,0.02066 -1.326457,0.414454 -1.317839,1.417146 0.04282,4.981104 0.01984,9.962763 0.01983,14.944232 -3.7e-5,17.368996 0.0079,34.738019 -0.02012,52.106963 -0.0017,1.05391 0.229272,1.51346 1.379501,1.45684 1.759089,-0.0866 3.528261,-0.0818 5.287991,-0.002 1.17485,0.0533 1.511645,-0.38115 1.501738,-1.52725 -0.04839,-5.598219 -0.02155,-11.197078 -0.02151,-16.795719 1.2e-5,-2.223458 4.24e-4,-2.220415 2.106941,-2.661674 0.517455,-0.108384 1.032108,-0.232982 1.543234,-0.3683 6.584187,-1.743192 11.772235,-5.300565 14.822035,-11.555714 2.81908,-5.781908 3.07038,-11.915725 2.01018,-18.097661 -1.23482,-7.200104 -4.97179,-12.719611 -11.86414,-16.07548 z"
         id="path4779"
         style="stroke-width:0.264583" />
      <path
         fill="#4396e0"
         opacity="1"
         stroke="none"
         d="m 135.64085,68.883522 c -1.35696,0.121875 -2.71393,0.121875 -4.23346,0.121875 0,1.248849 -0.0346,2.421532 0.0118,3.590996 0.0328,0.827103 -0.22019,1.240097 -1.11547,1.182373 -0.78738,-0.05076 -1.58062,-0.01061 -2.51543,-0.01061 0,-1.554573 0,-3.069048 0,-4.763463 -1.26509,0 -2.39337,-0.0578 -3.51284,0.01677 -1.05038,0.06997 -1.46364,-0.31311 -1.34573,-1.361546 0.0625,-0.555632 0.0111,-1.124082 0.0111,-1.816182 1.60914,0 3.12602,0 4.72715,0 0,-1.607965 0,-3.089314 0,-4.672782 1.24413,0 2.40325,0 3.65187,0 0,1.477886 0,2.989212 0,4.65932 1.3147,0 2.69421,0 4.1974,5.9e-5 0.1237,0.97714 0.1237,1.954228 0.1237,3.053186 z"
         id="path4781"
         style="stroke-width:0.264583" />
      <path
         fill="#4396e0"
         opacity="1"
         stroke="none"
         d="m 87.119894,55.24918 c 0.43772,0.729488 0.8419,1.433018 1.05174,2.190398 0.53901,1.945399 0.99513,3.913862 1.47774,5.874745 0.27352,1.111327 0.53397,2.225873 1.00006,3.319851 0,-3.745976 0,-7.491952 0,-11.31167 1.35927,0 2.60858,0 3.91987,0 0,8.146328 0,16.243654 0,24.435967 -1.51022,0 -3.02809,0 -4.57966,0 -1.18917,-4.560261 -2.3848,-9.145292 -3.58043,-13.730314 -0.0864,0.0136 -0.17279,0.02719 -0.25918,0.04078 0,4.552487 0,9.104979 0,13.720048 -1.40911,0 -2.71551,0 -4.12188,0 0,-8.122939 0,-16.25024 0,-24.541239 1.65147,0 3.31057,0 5.09174,0.0013 z"
         id="path4783"
         style="stroke-width:0.264583" />
      <path
         fill="#4496e0"
         opacity="1"
         stroke="none"
         d="m 67.689834,59.749047 c 1.0257,-4.675593 6.03782,-6.78351 10.11221,-4.166669 1.50225,0.964832 2.22357,2.588432 2.24941,4.334756 0.0749,5.057566 0.11659,10.119166 -0.008,15.174753 -0.071,2.871854 -2.29417,5.10622 -5.26427,5.309502 -2.71833,0.186037 -4.99772,-0.455953 -6.44077,-2.935504 -0.33555,-0.576561 -0.46161,-1.275059 -0.62046,-2.117262 0.10335,-0.415107 0.17745,-0.630349 0.17782,-0.845701 0.008,-4.577355 0.0124,-9.154731 -1.1e-4,-13.732057 -10e-4,-0.340789 -0.13393,-0.68122 -0.20552,-1.021818 m 4.71697,0.522636 c -2e-4,4.054877 -5.3e-4,8.109752 -2.7e-4,12.164634 5e-5,0.837399 -0.17788,1.731878 0.063,2.493508 0.18131,0.573188 0.87979,1.334018 1.3868,1.364379 0.63948,0.0383 1.49123,-0.30204 1.48115,-1.42095 -0.0448,-4.98004 -0.004,-9.960848 -0.0499,-14.940867 -0.003,-0.358558 -0.37534,-0.858959 -0.71244,-1.042046 -1.02788,-0.55826 -1.62793,-0.201078 -2.16827,1.381342 z"
         id="path4785"
         style="stroke-width:0.264583" />
      <path
         fill="#4496e0"
         opacity="1"
         stroke="none"
         d="m 64.689904,55.247185 c 0.69385,-0.03972 1.11942,-0.03542 1.11658,0.783786 -0.0273,7.882824 -0.0163,15.765777 -0.0163,23.735413 -1.49735,0 -2.9222,0 -4.48495,0 0,-3.64377 0,-7.274679 0,-10.964521 -1.17611,0 -2.21828,0 -3.39646,0 0,3.620701 0,7.252449 0,10.96691 -1.55879,0 -2.9838,0 -4.48175,0 0,-8.145941 0,-16.271245 0,-24.459165 1.44384,0 2.83838,0 4.37008,0 0,3.090294 0,6.192787 0,9.376397 1.2076,0 2.28034,0 3.44478,0 0,-3.088566 0,-6.158421 0,-9.438881 1.16282,0 2.24192,0 3.44808,6.1e-5 z"
         id="path4787"
         style="stroke-width:0.264583" />
      <path
         fill="#4496e0"
         opacity="1"
         stroke="none"
         d="m 101.50938,72.442509 c 0,1.093499 0,2.056156 0,3.180352 1.82704,0 3.57454,0.04434 5.31825,-0.01762 0.95628,-0.03396 1.38692,0.238882 1.3122,1.256874 -0.0699,0.952913 -0.015,1.915001 -0.015,2.989223 -3.59125,0 -7.0605,-0.0046 -10.529736,0.0033 -0.8492,0.0019 -0.85145,-0.555742 -0.85032,-1.167799 0.007,-3.701712 0.003,-7.403457 0.003,-11.105185 -3e-5,-4.049903 0,-8.0998 0,-12.241982 3.780216,0 7.497676,0 11.296386,0 0,1.152806 0,2.313612 0,3.564345 -2.12788,0 -4.22858,0 -6.43188,0 0,1.950953 0,3.81781 0,5.833954 1.64921,0 3.34091,0 5.10913,0 0,1.361593 0,2.579187 0,3.932536 -1.64369,0 -3.33729,0 -5.21234,0 0,1.300785 0,2.470973 0,3.771993 z"
         id="path4789"
         style="stroke-width:0.264583" />
      <path
         fill="#4396e0"
         opacity="1"
         stroke="none"
         d="m 110.53781,65.830137 c 1.08753,-10e-6 2.0472,-10e-6 3.09657,-10e-6 0,-1.58342 0,-3.065555 0,-4.654865 1.24753,0 2.40703,0 3.70491,0 0,1.4674 0,2.982788 0,4.631703 1.64489,0 3.16152,0 4.60486,0 0.10662,0.209487 0.17616,0.282866 0.17715,0.357164 0.0455,3.424332 0.32037,2.77441 -2.71775,2.838757 -0.61214,0.01296 -1.22478,0.0019 -2.01878,0.0019 0,1.274291 -0.0312,2.48885 0.011,3.700848 0.0283,0.810843 -0.30428,1.084737 -1.0929,1.072963 -3.06355,-0.04572 -2.57892,0.283405 -2.61417,-2.444142 -0.01,-0.737124 -10e-4,-1.47448 -10e-4,-2.329669 -0.81702,0 -1.50981,0 -2.20261,0 -0.70041,0 -1.40083,0 -2.20133,0 0,-1.050655 0,-2.032646 0,-3.107518 0.36351,-0.02164 0.74508,-0.04437 1.25452,-0.0671 z"
         id="path4791"
         style="stroke-width:0.264583" />
      <path
         fill="#4697e0"
         opacity="1"
         stroke="none"
         d="m 18.936216,60.53873 c -6e-6,-6.463477 -6e-6,-12.794665 -6e-6,-19.215587 0.429417,-0.02281 0.725378,-0.09 1.003568,-0.04568 5.578966,0.888875 9.129903,4.160615 10.70007,9.487781 1.526773,5.179941 1.42585,10.385456 -0.813858,15.364777 -2.035517,4.525362 -5.746384,6.810105 -10.88977,7.379031 0,-4.349324 0,-8.593678 -4e-6,-12.970325 z"
         id="path4799"
         style="stroke-width:0.264583" />
    </g>
  </g>
</svg>
